<svg id="Layer_1" data-name="Layer 1" xmlns="http://www.w3.org/2000/svg" viewBox="0 0 838.31 152.08"><defs><style>.cls-1{fill:#cc787a;}.cls-2{fill:#fff;}.cls-3{fill:#604e58;}</style></defs><title>logo</title><path class="cls-1" d="M105.24,0a48.31,48.31,0,1,0,48.31,48.31A48.31,48.31,0,0,0,105.24,0Zm0,85.27a37,37,0,1,1,37-37A37,37,0,0,1,105.24,85.27Z"/><rect class="cls-1" x="8.62" y="34.16" width="193.24" height="117.92"/><polygon class="cls-2" points="68.77 85.1 0 85.1 0 79.32 68.72 79.32 141.76 79.32 225.19 79.32 225.19 85.1 141.71 85.1 68.77 85.1"/><path class="cls-2" d="M89.71,64a18.29,18.29,0,0,1,15.53,8.6,18.31,18.31,0,0,1,33.83,9.7c0,14.94-27.74,36.18-33.83,36.18S71.41,97.26,71.41,82.32A18.29,18.29,0,0,1,89.71,64Z"/><path class="cls-3" d="M306.61,45.53c13.87,0,23.9,4.81,33.24,12.78a2.66,2.66,0,0,1,.14,3.85l-3.71,3.71c-1.1,1.37-2.2,1.24-3.57-.14-7.14-6.18-16.9-10.3-26.24-10.3-21.71,0-38.33,18.27-38.33,39.57s16.62,39.43,38.33,39.43c11.95,0,19-4.81,26.24-10.31,1.37-1.1,2.47-1,3.3-.41l4.12,3.71c1.1.82.82,2.75-.14,3.71a47.14,47.14,0,0,1-33.38,13.33,49.47,49.47,0,1,1,0-98.93Z"/><path class="cls-3" d="M373.93,108.18A45.06,45.06,0,0,1,385.61,110c.13-10.17-1.1-14.84-8.93-14.84a48.36,48.36,0,0,0-16.49,3c-1.37.55-2.2-.13-2.61-1.37l-1.1-3.43c-.55-1.65.28-2.48,1.51-3a51.73,51.73,0,0,1,19.1-3.57c14,0,17.45,7.15,17.45,23.22v30.5a2.7,2.7,0,0,1-2.61,2.61h-2.61c-1.51,0-1.93-.82-2.34-2.06l-1.1-3.71a23.79,23.79,0,0,1-17,7.15c-9.62,0-16.9-7-16.9-18C352,116,359.78,108.18,373.93,108.18Zm-3.57,28a19.5,19.5,0,0,0,15.11-7.69V117.67c-1.65-1-5.5-2.2-11.54-2.2-7.69,0-13.19,3.84-13.19,11C360.74,132,364.45,136.21,370.36,136.21Z"/><path class="cls-3" d="M413,90.74a2.69,2.69,0,0,1,2.61-2.61H420a2.7,2.7,0,0,1,2.61,2.61v29c0,10.44,4.67,15.52,12.36,15.52a21.74,21.74,0,0,0,16.35-7.83V90.74a2.7,2.7,0,0,1,2.61-2.61h4.26a2.7,2.7,0,0,1,2.61,2.61v49.73a2.7,2.7,0,0,1-2.61,2.61h-2.61c-1.51,0-2.06-1-2.47-2.33l-1-3.58a25,25,0,0,1-17.86,7.29c-15.93,0-21.29-10.31-21.29-24.87Z"/><path class="cls-3" d="M477,135.39c.55-.83,1.51-2.75,1.92-3.44.69-1.1,2.2-1.37,3.71-.41,0,0,5.91,4.81,12.92,4.81,5.63,0,8.93-2.89,8.93-6.6,0-4.8-4.12-7-12.09-11-7.28-3.57-15.66-8.38-15.66-17.72,0-5.77,4.67-14.29,17.44-14.29A28,28,0,0,1,509.4,91a3.33,3.33,0,0,1,.82,4.26l-1.1,2.2a3,3,0,0,1-4,1.23s-5.91-3.29-11-3.29c-6.18,0-7.83,3.16-7.83,5.49,0,4.54,4.54,6.6,10.17,9.35,9.48,4.53,18,8.79,18,18.68,0,8-7.69,15.53-19,15.53a27.82,27.82,0,0,1-17.86-6.19A2.72,2.72,0,0,1,477,135.39Z"/><path class="cls-3" d="M552.12,86.75c14.43,0,24.87,10.72,24.87,25.14a35.4,35.4,0,0,1-.27,3.71,2.53,2.53,0,0,1-2.48,2.34H534.67c.55,9.2,8.66,17.86,18.41,17.86a26.21,26.21,0,0,0,13.61-4.12c1.92-1.1,2.74-1.79,3.84-.28.83,1.1,1.51,2.06,2.34,3.16s1.51,2.06-.55,3.58c-3.3,2.61-10.72,6.32-20.2,6.32-16.62,0-26.93-13.06-26.93-28.86C525.19,100.08,535.5,86.75,552.12,86.75Zm15.39,23.5c-.41-8-7-15.12-15.39-15.12a17.09,17.09,0,0,0-17.31,15.12Z"/><path class="cls-3" d="M593.89,49.52a2.61,2.61,0,0,1,2.61-2.61h54.13a2.61,2.61,0,0,1,2.61,2.61v4a2.6,2.6,0,0,1-2.61,2.61H604.47V93.76H643.9a2.71,2.71,0,0,1,2.61,2.61v4A2.7,2.7,0,0,1,643.9,103H604.47v37.51a2.7,2.7,0,0,1-2.61,2.61H596.5a2.6,2.6,0,0,1-2.61-2.61Z"/><path class="cls-3" d="M686.49,86.75c15.25,0,27.34,13.19,27.34,28.72,0,15.8-12.09,29-27.34,29s-27.34-13.19-27.34-29C659.15,99.94,671.24,86.75,686.49,86.75Zm0,48.78c10,0,17.86-8.94,17.86-20.06,0-10.86-7.83-19.65-17.86-19.65s-17.86,8.79-17.86,19.65C668.63,126.59,676.46,135.53,686.49,135.53Z"/><path class="cls-3" d="M729.49,49.52a2.71,2.71,0,0,1,2.61-2.61h4.26A2.7,2.7,0,0,1,739,49.52v90.95a2.69,2.69,0,0,1-2.61,2.61H732.1a2.7,2.7,0,0,1-2.61-2.61Z"/><path class="cls-3" d="M756.7,56.25a6.53,6.53,0,1,1,6.45,6.46A6.47,6.47,0,0,1,756.7,56.25Zm1.92,34.49a2.7,2.7,0,0,1,2.61-2.61h4.26a2.7,2.7,0,0,1,2.61,2.61v49.73a2.7,2.7,0,0,1-2.61,2.61h-4.26a2.7,2.7,0,0,1-2.61-2.61Z"/><path class="cls-3" d="M811,86.75c15.25,0,27.34,13.19,27.34,28.72,0,15.8-12.09,29-27.34,29s-27.34-13.19-27.34-29C783.63,99.94,795.72,86.75,811,86.75Zm0,48.78c10,0,17.86-8.94,17.86-20.06,0-10.86-7.83-19.65-17.86-19.65s-17.86,8.79-17.86,19.65C793.11,126.59,800.94,135.53,811,135.53Z"/></svg>